HIERARCHY
ROOT Hips
{
	OFFSET 0.000000 103.266502 0.000000
	CHANNELS 6 Xposition Yposition Zposition Xrotation Yrotation Zrotation 
	JOINT Spine
	{
		OFFSET -0.002400 12.777504 0.315300
		CHANNELS 3 Xrotation Yrotation Zrotation
		JOINT Spine1
		{
			OFFSET -0.002067 5.816869 0.032633
			CHANNELS 3 Xrotation Yrotation Zrotation
			JOINT Spine1_split
			{
				OFFSET -0.002067 5.816869 0.032633
				CHANNELS 3 Xrotation Yrotation Zrotation
				JOINT Spine2
				{
					OFFSET -0.002067 5.816869 0.032633
					CHANNELS 3 Xrotation Yrotation Zrotation
					JOINT Neck
					{
						OFFSET -0.003700 21.199493 -0.826900
						CHANNELS 3 Xrotation Yrotation Zrotation
						JOINT Head
						{
							OFFSET 0.000000 20.442200 4.834800
							CHANNELS 3 Xrotation Yrotation Zrotation
							JOINT HeadTop_End
							{
								OFFSET 0.000000 34.668396 4.968400
								CHANNELS 3 Xrotation Yrotation Zrotation
								End Site
								{
									OFFSET 0.000000 0.000000 0.000000
								}
							}
						}
					}
					JOINT LeftShoulder
					{
						OFFSET 3.288150 8.794197 -1.372250
						CHANNELS 3 Xrotation Yrotation Zrotation
						JOINT LeftShoulder_split
						{
							OFFSET 3.288150 8.794197 -1.372250
							CHANNELS 3 Xrotation Yrotation Zrotation
							JOINT LeftArm
							{
								OFFSET 11.953299 -2.279007 -0.146200
								CHANNELS 3 Xrotation Yrotation Zrotation
								JOINT LeftForeArm
								{
									OFFSET 18.448900 0.000000 0.000000
									CHANNELS 3 Xrotation Yrotation Zrotation
									JOINT LeftHand
									{
										OFFSET 29.527798 0.000000 0.000000
										CHANNELS 3 Xrotation Yrotation Zrotation
										JOINT LeftHandThumb1
										{
											OFFSET 10.739754 -2.369614 9.225399
											CHANNELS 3 Xrotation Yrotation Zrotation
											JOINT LeftHandThumb2
											{
												OFFSET 4.926170 -2.844131 2.844125
												CHANNELS 3 Xrotation Yrotation Zrotation
												JOINT LeftHandThumb3
												{
													OFFSET 4.614891 -2.664413 2.664409
													CHANNELS 3 Xrotation Yrotation Zrotation
													JOINT LeftHandThumb4
													{
														OFFSET 4.432465 -2.559082 2.559083
														CHANNELS 3 Xrotation Yrotation Zrotation
														End Site
														{
															OFFSET 0.000000 0.000000 0.000000
														}
													}
												}
											}
										}
										JOINT LeftHandIndex1
										{
											OFFSET 26.467674 0.187653 6.405298
											CHANNELS 3 Xrotation Yrotation Zrotation
											JOINT LeftHandIndex2
											{
												OFFSET 8.792900 0.000000 0.000000
												CHANNELS 3 Xrotation Yrotation Zrotation
												JOINT LeftHandIndex3
												{
													OFFSET 10.075203 0.000000 0.000000
													CHANNELS 3 Xrotation Yrotation Zrotation
													End Site
													{
														OFFSET 0.000000 0.000000 0.000000
													}
												}
											}
										}
										JOINT LeftHandMiddle1
										{
											OFFSET 25.764404 0.000000 0.000000
											CHANNELS 3 Xrotation Yrotation Zrotation
											JOINT LeftHandMiddle2
											{
												OFFSET 9.393974 0.000000 0.000000
												CHANNELS 3 Xrotation Yrotation Zrotation
												JOINT LeftHandMiddle3
												{
													OFFSET 10.771950 0.000000 0.000000
													CHANNELS 3 Xrotation Yrotation Zrotation
													End Site
													{
														OFFSET 0.000000 0.000000 0.000000
													}
												}
											}
										}
										JOINT LeftHandRing1
										{
											OFFSET 24.660927 0.144547 -6.225808
											CHANNELS 3 Xrotation Yrotation Zrotation
											JOINT LeftHandRing2
											{
												OFFSET 9.393799 0.000000 0.000000
												CHANNELS 3 Xrotation Yrotation Zrotation
												JOINT LeftHandRing3
												{
													OFFSET 9.928497 0.000000 0.000000
													CHANNELS 3 Xrotation Yrotation Zrotation
													End Site
													{
														OFFSET 0.000000 0.000000 0.000000
													}
												}
											}
										}
										JOINT LeftHandPinky1
										{
											OFFSET 23.655350 0.125290 -12.815412
											CHANNELS 3 Xrotation Yrotation Zrotation
											JOINT LeftHandPinky2
											{
												OFFSET 8.425102 0.000000 0.000000
												CHANNELS 3 Xrotation Yrotation Zrotation
												JOINT LeftHandPinky3
												{
													OFFSET 8.147003 0.000000 0.000000
													CHANNELS 3 Xrotation Yrotation Zrotation
													End Site
													{
														OFFSET 0.000000 0.000000 0.000000
													}
												}
											}
										}
									}
								}
							}
						}
					}
					JOINT RightShoulder
					{
						OFFSET -3.249400 8.794197 -1.372250
						CHANNELS 3 Xrotation Yrotation Zrotation
						JOINT RightShoulder_split
						{
							OFFSET -3.249400 8.794197 -1.372250
							CHANNELS 3 Xrotation Yrotation Zrotation
							JOINT RightArm
							{
								OFFSET -11.953299 -2.279007 -0.146200
								CHANNELS 3 Xrotation Yrotation Zrotation
								JOINT RightForeArm
								{
									OFFSET -18.448900 0.000000 0.000000
									CHANNELS 3 Xrotation Yrotation Zrotation
									JOINT RightHand
									{
										OFFSET -29.527802 0.000000 0.000000
										CHANNELS 3 Xrotation Yrotation Zrotation
										JOINT RightHandThumb1
										{
											OFFSET -10.739754 -2.369614 9.225399
											CHANNELS 3 Xrotation Yrotation Zrotation
											JOINT RightHandThumb2
											{
												OFFSET -4.926170 -2.844131 2.844125
												CHANNELS 3 Xrotation Yrotation Zrotation
												JOINT RightHandThumb3
												{
													OFFSET -4.614891 -2.664413 2.664409
													CHANNELS 3 Xrotation Yrotation Zrotation
													JOINT RightHandThumb4
													{
														OFFSET -4.432465 -2.559082 2.559083
														CHANNELS 3 Xrotation Yrotation Zrotation
														End Site
														{
															OFFSET 0.000000 0.000000 0.000000
														}
													}
												}
											}
										}
										JOINT RightHandIndex1
										{
											OFFSET -26.467674 0.187653 6.405298
											CHANNELS 3 Xrotation Yrotation Zrotation
											JOINT RightHandIndex2
											{
												OFFSET -8.792900 0.000000 0.000000
												CHANNELS 3 Xrotation Yrotation Zrotation
												JOINT RightHandIndex3
												{
													OFFSET -10.075203 0.000000 0.000000
													CHANNELS 3 Xrotation Yrotation Zrotation
													End Site
													{
														OFFSET 0.000000 0.000000 0.000000
													}
												}
											}
										}
										JOINT RightHandMiddle1
										{
											OFFSET -25.764404 0.000000 0.000000
											CHANNELS 3 Xrotation Yrotation Zrotation
											JOINT RightHandMiddle2
											{
												OFFSET -9.393974 0.000000 0.000000
												CHANNELS 3 Xrotation Yrotation Zrotation
												JOINT RightHandMiddle3
												{
													OFFSET -10.771950 0.000000 0.000000
													CHANNELS 3 Xrotation Yrotation Zrotation
													End Site
													{
														OFFSET 0.000000 0.000000 0.000000
													}
												}
											}
										}
										JOINT RightHandRing1
										{
											OFFSET -24.660927 0.144547 -6.225808
											CHANNELS 3 Xrotation Yrotation Zrotation
											JOINT RightHandRing2
											{
												OFFSET -9.393799 0.000000 0.000000
												CHANNELS 3 Xrotation Yrotation Zrotation
												JOINT RightHandRing3
												{
													OFFSET -9.928497 0.000000 0.000000
													CHANNELS 3 Xrotation Yrotation Zrotation
													End Site
													{
														OFFSET 0.000000 0.000000 0.000000
													}
												}
											}
										}
										JOINT RightHandPinky1
										{
											OFFSET -23.655350 0.125290 -12.815412
											CHANNELS 3 Xrotation Yrotation Zrotation
											JOINT RightHandPinky2
											{
												OFFSET -8.425102 0.000000 0.000000
												CHANNELS 3 Xrotation Yrotation Zrotation
												JOINT RightHandPinky3
												{
													OFFSET -8.147003 0.000000 0.000000
													CHANNELS 3 Xrotation Yrotation Zrotation
													End Site
													{
														OFFSET 0.000000 0.000000 0.000000
													}
												}
											}
										}
									}
								}
							}
						}
					}
				}
			}
		}
	}
	JOINT LeftUpLeg
	{
		OFFSET 11.394100 -6.187798 -0.413800
		CHANNELS 3 Xrotation Yrotation Zrotation
		JOINT LeftLeg
		{
			OFFSET 0.430247 -32.302673 3.732800
			CHANNELS 3 Xrotation Yrotation Zrotation
			JOINT LeftFoot
			{
				OFFSET -0.430247 -48.264931 -6.423300
				CHANNELS 3 Xrotation Yrotation Zrotation
				JOINT LeftToeBase
				{
					OFFSET 4.230900 -16.068199 23.438400
					CHANNELS 3 Xrotation Yrotation Zrotation
					JOINT LeftToe_End
					{
						OFFSET 4.510700 0.695400 19.974600
						CHANNELS 3 Xrotation Yrotation Zrotation
						End Site
						{
							OFFSET 0.000000 0.000000 0.000000
						}
					}
				}
			}
		}
	}
	JOINT RightUpLeg
	{
		OFFSET -11.333700 -6.187798 -0.413800
		CHANNELS 3 Xrotation Yrotation Zrotation
		JOINT RightLeg
		{
			OFFSET -0.430392 -32.302628 3.733000
			CHANNELS 3 Xrotation Yrotation Zrotation
			JOINT RightFoot
			{
				OFFSET 0.430392 -48.264973 -6.423500
				CHANNELS 3 Xrotation Yrotation Zrotation
				JOINT RightToeBase
				{
					OFFSET -4.230900 -16.068199 23.438400
					CHANNELS 3 Xrotation Yrotation Zrotation
					JOINT RightToe_End
					{
						OFFSET -4.510700 0.695400 19.974600
						CHANNELS 3 Xrotation Yrotation Zrotation
						End Site
						{
							OFFSET 0.000000 0.000000 0.000000
						}
					}
				}
			}
		}
	}
}
MOTION
Frames: 4
Frame Time: 0.016667
10.516932 88.058060 -0.140795 9.476903 -0.567183 -10.434534 8.496821 -3.341869 -7.104664 6.795706 -2.703226 -6.539374 0.000000 0.000000 0.000000 6.822728 -2.529053 -6.561658 -6.756034 -0.095604 -6.250957 -31.736771 -12.121327 11.385212 -0.000001 0.000000 -0.000001 0.657402 -5.474600 -9.273248 0.000000 0.000000 0.000000 -31.650875 6.573777 -19.060519 0.000005 -57.717270 0.000016 -13.439155 -6.592303 17.306774 -6.000705 -6.126810 4.616757 7.611087 24.884952 2.404804 -4.383183 25.960692 19.454332 0.000002 -0.000001 -0.000000 2.912874 7.374271 -59.057961 2.905708 5.057907 -59.732245 -0.000004 -0.000001 -0.000000 2.252967 6.917802 -51.180773 3.608290 5.405551 -67.425865 0.000000 -0.000000 0.000000 3.218387 7.543754 -62.485385 3.684674 5.436519 -68.234314 0.000003 0.000000 -0.000000 3.994150 7.876000 -70.768819 2.411827 4.736407 -53.951753 0.000001 -0.000000 -0.000000 0.361049 -0.787758 2.746803 0.000000 0.000000 0.000000 26.141077 -12.666231 76.530822 0.000137 79.226779 -0.000130 -6.073257 16.835013 -10.845142 -7.540279 -3.885176 -4.751895 7.955441 -28.077789 -3.121246 -4.006986 -18.468391 -17.389969 -0.000001 -0.000001 0.000001 0.055196 3.456515 6.528609 0.319249 -1.696220 21.316689 -0.000000 0.000001 -0.000000 -0.862794 -0.131503 17.725507 0.409664 -1.911713 24.188126 0.000001 0.000001 0.000000 2.184509 -6.710181 36.224164 0.531180 -2.161830 27.606166 0.000001 0.000001 0.000000 6.372296 -15.465766 52.716995 0.699901 -2.457411 31.790928 -0.000002 0.000001 0.000004 -58.508480 -11.348617 27.254243 49.305428 -1.892879 -1.988333 2.739475 1.296203 -12.368538 0.378493 0.001479 -0.475424 -0.000000 -0.000000 -0.000000 -48.375918 -27.026488 -0.307192 53.190160 5.937022 -0.821399 -15.695187 -20.122453 -7.656319 -0.000030 -0.000002 -0.000001 0.000000 -0.000000 0.000000 
10.565443 87.583221 -0.821665 9.226644 -1.646716 -10.146888 8.984443 -2.988602 -6.820664 7.111677 -2.571605 -6.414006 0.000000 0.000000 0.000000 7.134273 -2.411999 -6.415070 -6.827575 -0.078840 -6.203631 -31.801480 -11.665234 10.997516 -0.000000 0.000000 -0.000001 0.636247 -5.572581 -9.846494 0.000000 0.000000 0.000000 -30.413091 9.620335 -20.356773 0.000014 -56.737002 0.000001 -14.343218 -6.360671 17.068851 -6.000706 -6.126814 4.616757 7.611080 24.884949 2.404802 -4.383191 25.960694 19.454332 -0.000000 0.000002 -0.000001 2.751064 7.274462 -57.192855 2.743411 4.960003 -57.873620 -0.000000 0.000000 -0.000000 2.121159 6.809314 -49.506184 3.475099 5.348473 -66.004612 0.000001 0.000001 0.000000 3.090092 7.475474 -61.059822 3.661142 5.427105 -67.985722 0.000001 -0.000000 -0.000000 3.970107 7.867625 -70.519197 2.461740 4.772213 -54.554008 -0.000000 -0.000000 -0.000000 0.435993 -0.154699 3.207689 0.000000 0.000000 0.000000 23.731610 -11.004976 75.385290 0.000049 77.036303 -0.000042 -6.027869 16.951326 -10.577471 -7.540277 -3.885177 -4.751895 7.955440 -28.077788 -3.121239 -4.006985 -18.468388 -17.389971 -0.000001 -0.000000 -0.000000 0.053059 3.449688 6.560508 0.320773 -1.700110 21.368016 -0.000000 0.000002 0.000001 -0.863772 -0.045909 17.352791 0.369561 -1.819827 22.956440 -0.000000 -0.000002 0.000001 2.141063 -6.687478 35.625823 0.466203 -2.032810 25.830575 0.000000 0.000000 -0.000000 6.464546 -15.829399 52.143553 0.608261 -2.303127 29.584705 -0.000002 -0.000000 0.000001 -58.932955 -11.800430 27.427243 50.346936 -1.148690 -2.001360 2.785979 1.279991 -12.468632 0.287465 0.000852 -0.362013 -0.000000 -0.000000 -0.000000 -49.617602 -26.158467 -0.050082 54.245929 5.997040 -0.822665 -15.371001 -20.317226 -7.903328 -0.000008 -0.000002 -0.000012 -0.000000 -0.000000 0.000000 
10.605362 87.225929 -1.189499 8.951061 -3.035619 -9.843861 9.431604 -2.634528 -6.540878 7.403570 -2.428328 -6.253433 0.000000 0.000000 0.000000 7.422352 -2.272615 -6.260116 -6.781095 -0.061877 -6.124014 -31.448192 -11.031242 10.615894 0.000000 -0.000000 -0.000001 0.598239 -5.646889 -10.458241 0.000000 0.000000 0.000000 -29.130064 12.344777 -22.295083 -0.000021 -55.646968 -0.000034 -14.802852 -6.104331 16.567051 -6.000709 -6.126812 4.616760 7.611089 24.884944 2.404807 -4.383192 25.960695 19.454332 -0.000000 -0.000001 0.000001 2.566453 7.151424 -55.016624 2.558145 4.839161 -55.704707 0.000002 0.000000 0.000001 1.968709 6.675453 -47.516277 3.314511 5.274378 -64.269826 0.000001 0.000002 0.000001 2.935864 7.387872 -59.319974 3.593737 5.399468 -67.271175 -0.000003 0.000000 -0.000000 3.901188 7.843005 -69.801542 2.469457 4.777688 -54.646773 0.000002 -0.000000 -0.000000 0.490285 0.534001 3.685339 0.000000 0.000000 0.000000 21.315675 -9.569361 74.194282 0.000023 75.301347 -0.000015 -5.901940 17.065875 -10.420025 -7.540275 -3.885181 -4.751889 7.955438 -28.077789 -3.121241 -4.006982 -18.468388 -17.389974 0.000001 -0.000000 -0.000001 0.047256 3.429594 6.654591 0.325280 -1.711595 21.519455 -0.000000 0.000003 -0.000000 -0.863920 -0.016332 17.224359 0.341038 -1.751010 22.041138 0.000001 -0.000001 -0.000000 2.108127 -6.669264 35.181205 0.413866 -1.921017 24.313651 -0.000001 0.000002 0.000001 6.538801 -16.144233 51.652353 0.530193 -2.159937 27.579935 -0.000001 0.000001 0.000002 -58.853015 -12.233048 27.838893 51.369638 0.057541 -2.015885 2.586355 1.286997 -12.788409 0.206689 0.000443 -0.261340 -0.000000 0.000001 -0.000000 -50.357906 -25.466429 0.349009 55.035479 6.407781 -0.825376 -15.167398 -20.360259 -8.241468 -0.000043 -0.000002 -0.000001 -0.000000 -0.000000 0.000000 
10.610957 86.909035 -1.491447 8.754862 -4.139469 -9.586261 9.798878 -2.345419 -6.318193 7.641418 -2.286365 -6.122388 0.000000 0.000000 0.000000 7.656628 -2.105088 -6.121631 -6.723340 -0.048805 -5.995113 -31.190042 -10.624249 10.322453 -0.000001 0.000000 0.000001 0.557985 -5.698678 -11.061472 0.000000 0.000000 0.000000 -27.972070 14.186035 -24.353200 -0.000012 -54.075127 -0.000018 -14.800748 -5.737574 15.942807 -6.000705 -6.126814 4.616757 7.611086 24.884947 2.404797 -4.383187 25.960688 19.454330 0.000000 -0.000001 0.000001 2.366256 7.006033 -52.589298 2.357029 4.696169 -53.285349 0.000003 0.000001 0.000002 1.801739 6.517423 -45.261297 3.131659 5.182652 -62.263581 -0.000002 0.000001 -0.000003 2.760954 7.280770 -57.308067 3.487477 5.353935 -66.137254 0.000000 0.000001 0.000000 3.792477 7.802158 -68.662806 2.448834 4.763034 -54.398714 -0.000004 -0.000000 -0.000000 0.544747 1.131279 4.238609 0.000000 0.000000 0.000000 19.483451 -8.250653 73.006642 -0.000000 73.739036 0.000014 -5.737835 17.098182 -10.273472 -7.540277 -3.885176 -4.751894 7.955440 -28.077789 -3.121244 -4.006984 -18.468391 -17.389976 0.000000 -0.000000 -0.000001 0.037147 3.396650 6.808493 0.332722 -1.730322 21.767178 -0.000000 0.000001 0.000000 -0.863995 -0.023501 17.257065 0.323830 -1.707918 21.470903 0.000000 -0.000000 0.000000 2.087607 -6.657670 34.904210 0.373622 -1.829397 23.084023 0.000002 0.000000 0.000001 6.595906 -16.402351 51.253268 0.465287 -2.030952 25.805146 -0.000002 -0.000000 0.000001 -58.990677 -12.540607 28.080921 52.391622 0.997902 -2.027164 2.388313 1.291440 -12.810535 0.148029 0.000235 -0.188601 0.000000 -0.000000 0.000000 -51.026383 -24.759933 0.764297 55.732185 6.546747 -0.828786 -15.008620 -20.419773 -8.449698 -0.000014 0.000000 -0.000007 -0.000000 0.000000 0.000000 
